<svg width="30" height="31" viewBox="0 0 30 31" fill="none" xmlns="http://www.w3.org/2000/svg">
<g clip-path="url(#clip0_332_84)">
<mask id="mask0_332_84" style="mask-type:luminance" maskUnits="userSpaceOnUse" x="0" y="0" width="30" height="31">
<path d="M30 0.25H0V30.25H30V0.25Z" fill="white"/>
</mask>
<g mask="url(#mask0_332_84)">
<path d="M8.01953 5.31836H21.8637V25.2762H8.01953V5.31836Z" fill="#6B7D8E"/>
<path d="M21.2773 5.31836H26.0553C27.9586 5.31836 29.5018 6.86148 29.5018 8.7651V21.8295C29.5018 23.7331 27.9586 25.2762 26.0553 25.2762H21.2773V5.31836Z" fill="#FF938A"/>
<path d="M8.60529 5.31836H3.82737C1.92398 5.31836 0.380859 6.86148 0.380859 8.7651V21.8295C0.380859 23.7331 1.92398 25.2762 3.82737 25.2762H8.60529V5.31836Z" fill="#76E7E7"/>
<path d="M0.380859 8.7651V21.8295C0.380859 23.7331 1.92398 25.2762 3.82737 25.2762H7.88843C5.98481 25.2762 4.44169 23.7331 4.44169 21.8295V8.7651C4.44169 6.86148 5.98481 5.31859 7.88797 5.31836H3.82737C1.92398 5.31836 0.380859 6.86148 0.380859 8.7651Z" fill="#2EDDDA"/>
<path d="M29.5022 8.7651V21.8295C29.5022 23.7331 27.9591 25.2762 26.0557 25.2762H21.9946C23.8982 25.2762 25.4414 23.7331 25.4414 21.8295V8.7651C25.4414 6.86148 23.8982 5.31859 21.9951 5.31836H26.0557C27.9591 5.31836 29.5022 6.86148 29.5022 8.7651Z" fill="#FB695B"/>
<path d="M26.2686 9.91016C26.2686 10.3956 25.8751 10.7891 25.3896 10.7891C24.9044 10.7891 24.5107 10.3956 24.5107 9.91016C24.5107 9.4247 24.9044 9.03125 25.3896 9.03125C25.8751 9.03125 26.2686 9.4247 26.2686 9.91016Z" fill="#546370"/>
<path d="M26.2686 14.1543C26.2686 14.6398 25.8751 15.0332 25.3896 15.0332C24.9044 15.0332 24.5107 14.6398 24.5107 14.1543C24.5107 13.6688 24.9044 13.2754 25.3896 13.2754C25.8751 13.2754 26.2686 13.6688 26.2686 14.1543Z" fill="#546370"/>
<path d="M28.3911 12.0327C28.3911 12.5179 27.9977 12.9116 27.5122 12.9116C27.0267 12.9116 26.6333 12.5179 26.6333 12.0327C26.6333 11.5473 27.0267 11.1538 27.5122 11.1538C27.9977 11.1538 28.3911 11.5473 28.3911 12.0327Z" fill="#546370"/>
<path d="M24.1465 12.0327C24.1465 12.5179 23.7528 12.9116 23.2676 12.9116C22.7821 12.9116 22.3887 12.5179 22.3887 12.0327C22.3887 11.5473 22.7821 11.1538 23.2676 11.1538C23.7528 11.1538 24.1465 11.5473 24.1465 12.0327Z" fill="#546370"/>
<path d="M27.13 19.823C27.13 20.7841 26.3509 21.5632 25.3899 21.5632C24.429 21.5632 23.6499 20.7841 23.6499 19.823C23.6499 18.8619 24.429 18.083 25.3899 18.083C26.3509 18.083 27.13 18.8619 27.13 19.823Z" fill="#546370"/>
<path d="M5.37256 20.6846C5.37256 21.1698 4.97888 21.5635 4.49365 21.5635C4.00819 21.5635 3.61475 21.1698 3.61475 20.6846C3.61475 20.1991 4.00819 19.8057 4.49365 19.8057C4.97888 19.8057 5.37256 20.1991 5.37256 20.6846Z" fill="#546370"/>
<path d="M5.37256 16.4399C5.37256 16.9254 4.97888 17.3188 4.49365 17.3188C4.00819 17.3188 3.61475 16.9254 3.61475 16.4399C3.61475 15.9545 4.00819 15.561 4.49365 15.561C4.97888 15.561 5.37256 15.9545 5.37256 16.4399Z" fill="#546370"/>
<path d="M7.49414 18.562C7.49414 19.0475 7.10069 19.4409 6.61524 19.4409C6.12978 19.4409 5.73633 19.0475 5.73633 18.562C5.73633 18.0766 6.12978 17.6831 6.61524 17.6831C7.10069 17.6831 7.49414 18.0766 7.49414 18.562Z" fill="#546370"/>
<path d="M3.25001 18.562C3.25001 19.0475 2.85656 19.4409 2.3711 19.4409C1.88564 19.4409 1.49219 19.0475 1.49219 18.562C1.49219 18.0766 1.88564 17.6831 2.3711 17.6831C2.85656 17.6831 3.25001 18.0766 3.25001 18.562Z" fill="#546370"/>
<path d="M6.23308 10.7712C6.23308 11.7323 5.45397 12.5114 4.49312 12.5114C3.53204 12.5114 2.75293 11.7323 2.75293 10.7712C2.75293 9.81036 3.53204 9.03125 4.49312 9.03125C5.45397 9.03125 6.23308 9.81036 6.23308 10.7712Z" fill="#546370"/>
<path d="M15.8225 15.3949C15.8225 14.7751 15.4281 14.2725 14.9415 14.2725C14.4549 14.2725 14.0605 14.7751 14.0605 15.3949C14.0605 16.0147 14.4549 16.5171 14.9415 16.5171C15.4281 16.5171 15.8225 16.0147 15.8225 15.3949Z" fill="#454545"/>
<path d="M18.563 14.0771C18.3204 14.0771 18.1235 14.274 18.1235 14.5166V15.2461C18.1235 15.4889 18.3204 15.6855 18.563 15.6855C18.8058 15.6855 19.0024 15.4889 19.0024 15.2461V14.5166C19.0024 14.274 18.8058 14.0771 18.563 14.0771Z" fill="black"/>
<path d="M11.3198 14.0771C11.077 14.0771 10.8804 14.274 10.8804 14.5166V15.2461C10.8804 15.4889 11.077 15.6855 11.3198 15.6855C11.5624 15.6855 11.7593 15.4889 11.7593 15.2461V14.5166C11.7593 14.274 11.5624 14.0771 11.3198 14.0771Z" fill="black"/>
<path d="M26.0555 4.87891H5.60121C5.35836 4.87891 5.16175 5.07575 5.16175 5.31836C5.16175 5.56098 5.35836 5.75781 5.60121 5.75781H8.16583V24.8365H3.82737C2.16935 24.8368 0.820314 23.4875 0.820314 21.8295V8.7651C0.820314 7.10685 2.16935 5.75781 3.82737 5.75781C4.07021 5.75781 4.26682 5.5612 4.26682 5.31836C4.26682 5.07575 4.07021 4.87891 3.82737 4.87891C1.6848 4.87891 -0.0585938 6.62207 -0.0585938 8.7651V21.8295C-0.0585938 23.9723 1.6848 25.7157 3.82737 25.7157H26.0553C28.1981 25.7157 29.9415 23.9723 29.9415 21.8295V8.7651C29.9415 6.62207 28.1981 4.87891 26.0555 4.87891ZM9.04474 5.75781H20.8381V24.8365H9.04474V5.75781ZM29.0626 21.8295C29.0626 23.4875 27.7135 24.8365 26.0555 24.8365H21.717V5.75781H26.0555C27.7135 5.75781 29.0626 7.10685 29.0626 8.76487V21.8295Z" fill="black"/>
<path d="M25.3896 11.2285C26.1168 11.2285 26.708 10.6371 26.708 9.91016C26.708 9.18323 26.1168 8.5918 25.3896 8.5918C24.6627 8.5918 24.0713 9.18323 24.0713 9.91016C24.0713 10.6371 24.6627 11.2285 25.3896 11.2285ZM25.3896 9.4707C25.632 9.4707 25.8291 9.66777 25.8291 9.91016C25.8291 10.1525 25.632 10.3496 25.3896 10.3496C25.1475 10.3496 24.9502 10.1525 24.9502 9.91016C24.9502 9.66777 25.1475 9.4707 25.3896 9.4707Z" fill="black"/>
<path d="M24.0713 14.1543C24.0713 14.8812 24.6627 15.4727 25.3896 15.4727C26.1168 15.4727 26.708 14.8812 26.708 14.1543C26.708 13.4274 26.1168 12.8359 25.3896 12.8359C24.6627 12.8359 24.0713 13.4274 24.0713 14.1543ZM25.3896 13.7148C25.632 13.7148 25.8291 13.9119 25.8291 14.1543C25.8291 14.3967 25.632 14.5938 25.3896 14.5938C25.1475 14.5938 24.9502 14.3967 24.9502 14.1543C24.9502 13.9119 25.1475 13.7148 25.3896 13.7148Z" fill="black"/>
<path d="M26.1934 12.0322C26.1934 12.7592 26.7848 13.3506 27.5117 13.3506C28.2386 13.3506 28.8301 12.7592 28.8301 12.0322C28.8301 11.3053 28.2386 10.7139 27.5117 10.7139C26.7848 10.7139 26.1934 11.3053 26.1934 12.0322ZM27.9512 12.0322C27.9512 12.2746 27.7541 12.4717 27.5117 12.4717C27.2693 12.4717 27.0723 12.2746 27.0723 12.0322C27.0723 11.7901 27.2693 11.5928 27.5117 11.5928C27.7541 11.5928 27.9512 11.7901 27.9512 12.0322Z" fill="black"/>
<path d="M24.586 12.0322C24.586 11.3053 23.9945 10.7139 23.2676 10.7139C22.5407 10.7139 21.9492 11.3053 21.9492 12.0322C21.9492 12.7592 22.5407 13.3506 23.2676 13.3506C23.9945 13.3506 24.586 12.7594 24.586 12.0322ZM22.8281 12.0322C22.8281 11.7901 23.0252 11.5928 23.2676 11.5928C23.51 11.5928 23.7071 11.7901 23.7071 12.0322C23.7071 12.2746 23.51 12.4717 23.2676 12.4717C23.0252 12.4717 22.8281 12.2746 22.8281 12.0322Z" fill="black"/>
<path d="M25.3899 17.6436C24.1882 17.6436 23.2104 18.6213 23.2104 19.823C23.2104 21.0248 24.1882 22.0024 25.3899 22.0024C25.7593 22.0024 26.1246 21.9083 26.4457 21.73C26.6581 21.6124 26.7345 21.3448 26.6169 21.1327C26.499 20.9205 26.2317 20.8436 26.0195 20.9614C25.8284 21.0676 25.6107 21.1237 25.3899 21.1237C24.6728 21.1237 24.0894 20.5403 24.0894 19.823C24.0894 19.1059 24.6728 18.5225 25.3899 18.5225C26.1072 18.5225 26.6906 19.1059 26.6906 19.823C26.6906 20.0658 26.8872 20.2624 27.13 20.2624C27.3727 20.2624 27.5695 20.0658 27.5695 19.823C27.5695 18.6213 26.5917 17.6436 25.3899 17.6436Z" fill="black"/>
<path d="M4.49317 22.0029C5.2201 22.0029 5.81153 21.4115 5.81153 20.6846C5.81153 19.9576 5.2201 19.3662 4.49317 19.3662C3.76601 19.3662 3.1748 19.9576 3.1748 20.6846C3.1748 21.4115 3.76601 22.0029 4.49317 22.0029ZM4.49317 20.2451C4.73533 20.2451 4.93262 20.4422 4.93262 20.6846C4.93262 20.9267 4.73533 21.124 4.49317 21.124C4.25078 21.124 4.05371 20.9267 4.05371 20.6846C4.05371 20.4422 4.25078 20.2451 4.49317 20.2451Z" fill="black"/>
<path d="M4.49317 17.7583C5.2201 17.7583 5.81153 17.1669 5.81153 16.4399C5.81153 15.713 5.2201 15.1216 4.49317 15.1216C3.76601 15.1216 3.1748 15.713 3.1748 16.4399C3.1748 17.1669 3.76601 17.7583 4.49317 17.7583ZM4.49317 16.0005C4.73533 16.0005 4.93262 16.1976 4.93262 16.4399C4.93262 16.6823 4.73533 16.8794 4.49317 16.8794C4.25078 16.8794 4.05371 16.6823 4.05371 16.4399C4.05371 16.1976 4.25078 16.0005 4.49317 16.0005Z" fill="black"/>
<path d="M7.9336 18.562C7.9336 17.8351 7.34216 17.2437 6.61524 17.2437C5.88831 17.2437 5.29688 17.8351 5.29688 18.562C5.29688 19.2889 5.88831 19.8804 6.61524 19.8804C7.34216 19.8804 7.9336 19.2889 7.9336 18.562ZM6.17578 18.562C6.17578 18.3196 6.37285 18.1226 6.61524 18.1226C6.85762 18.1226 7.05469 18.3196 7.05469 18.562C7.05469 18.8044 6.85762 19.0015 6.61524 19.0015C6.37308 19.0015 6.17578 18.8044 6.17578 18.562Z" fill="black"/>
<path d="M1.05273 18.562C1.05273 19.2889 1.64417 19.8804 2.3711 19.8804C3.09803 19.8804 3.68946 19.2889 3.68946 18.562C3.68946 17.8351 3.09803 17.2437 2.3711 17.2437C1.64417 17.2437 1.05273 17.8351 1.05273 18.562ZM2.81055 18.562C2.81055 18.8044 2.61348 19.0015 2.3711 19.0015C2.12871 19.0015 1.93164 18.8044 1.93164 18.562C1.93164 18.3196 2.12871 18.1226 2.3711 18.1226C2.61348 18.1226 2.81055 18.3196 2.81055 18.562Z" fill="black"/>
<path d="M4.49312 8.5918C3.29126 8.5918 2.31348 9.56958 2.31348 10.7712C2.31348 11.9731 3.29126 12.9506 4.49312 12.9506C5.69475 12.9506 6.67254 11.9729 6.67254 10.7712C6.67254 9.56958 5.69475 8.5918 4.49312 8.5918ZM4.49312 12.0717C3.77581 12.0717 3.19238 11.4883 3.19238 10.7712C3.19238 10.0541 3.77581 9.47071 4.49312 9.47071C5.21021 9.47071 5.79363 10.0541 5.79363 10.7712C5.79363 11.4883 5.21021 12.0717 4.49312 12.0717Z" fill="black"/>
<path d="M14.9415 13.833C14.2134 13.833 13.6211 14.5336 13.6211 15.3949C13.6211 16.2559 14.2134 16.9566 14.9415 16.9566C15.6696 16.9566 16.2619 16.2559 16.2619 15.3949C16.2619 14.5336 15.6696 13.833 14.9415 13.833ZM14.9415 16.0776C14.7328 16.0776 14.5 15.7973 14.5 15.3949C14.5 14.9925 14.7328 14.7119 14.9415 14.7119C15.1502 14.7119 15.383 14.9925 15.383 15.3949C15.383 15.7973 15.1502 16.0776 14.9415 16.0776Z" fill="black"/>
</g>
</g>
<defs>
<clipPath id="clip0_332_84">
<rect width="30" height="30" fill="white" transform="translate(0 0.25)"/>
</clipPath>
</defs>
</svg>
