<svg width="30" height="31" viewBox="0 0 30 31" fill="none" xmlns="http://www.w3.org/2000/svg">
<g clip-path="url(#clip0_332_140)">
<mask id="mask0_332_140" style="mask-type:luminance" maskUnits="userSpaceOnUse" x="0" y="0" width="30" height="31">
<path d="M30 0.25H0V30.25H30V0.25Z" fill="white"/>
</mask>
<g mask="url(#mask0_332_140)">
<path d="M12.6885 14.1736L15.9592 11.4624C16.0745 11.3668 16.0993 11.1996 16.0166 11.0747L14.3854 8.60904C14.2862 8.45904 14.0766 8.43285 13.9435 8.55385L12.6885 9.69478V14.1736Z" fill="#7CD7F1"/>
<path d="M0.439941 3.26998V18.1766C0.439941 18.3386 0.57125 18.4699 0.733262 18.4699H11.7433C11.9053 18.4699 12.0366 18.3386 12.0366 18.1766V15.9562L12.6883 14.1738V1.80748C12.6883 1.64547 12.557 1.51416 12.3949 1.51416H3.68334C3.52133 1.51416 3.39002 1.64547 3.39002 1.80748V2.97666H0.733262C0.571309 2.97666 0.439941 3.10797 0.439941 3.26998Z" fill="#ED5E4A"/>
<path d="M12.688 1.80748V14.1743L12.0363 15.9565V18.1769C12.0363 18.3389 11.905 18.4702 11.7429 18.4702H10.1309V15.9565L10.7826 14.1743V1.51416H12.3947C12.5567 1.51416 12.688 1.64547 12.688 1.80748Z" fill="#D85041"/>
<path d="M16.5286 11.0518L14.5634 8.08109C14.443 7.89922 14.1979 7.82199 13.9748 7.94047C13.9552 7.9509 13.9373 7.96479 13.9208 7.97979L13.1282 8.70037V1.36754C13.1282 1.20553 12.9969 1.07422 12.8348 1.07422H3.24334C3.08133 1.07422 2.95002 1.20553 2.95002 1.36754V2.53672H0.29332C0.131309 2.53672 0 2.66803 0 2.83004V18.6166C0 18.7786 0.131309 18.9099 0.29332 18.9099H12.1833C12.3454 18.9099 12.4767 18.7786 12.4767 18.6166V16.0342L13.0607 14.4366L16.4425 11.6333C16.6155 11.4899 16.6526 11.2392 16.5286 11.0518ZM12.2483 9.695V14.0959L11.7625 15.4249H9.94406C9.70318 15.4249 9.49307 15.6105 9.48586 15.8513C9.47836 16.1005 9.67811 16.3048 9.92561 16.3048H11.5966V17.7366C11.5966 17.8987 11.4653 18.03 11.3033 18.03H1.17328C1.01127 18.03 0.879961 17.8987 0.879961 17.7366V16.3048H6.8274C7.06828 16.3048 7.2784 16.1192 7.28561 15.8784C7.29311 15.6292 7.09336 15.4249 6.84586 15.4249H0.879961V8.39398H12.2483V9.695ZM12.2483 7.51402H0.879961V3.70994C0.879961 3.54793 1.01127 3.41662 1.17328 3.41662H2.95002V6.42307C2.95002 6.664 3.1357 6.87406 3.37652 6.88127C3.62566 6.88871 3.82998 6.68896 3.82998 6.44152V2.97664V2.2475C3.82998 2.08549 3.96129 1.95418 4.1233 1.95418H5.94135V6.42312C5.94135 6.66406 6.12703 6.87412 6.36785 6.88133C6.61699 6.88877 6.82131 6.68902 6.82131 6.44158V1.95418H9.09486V6.42312C9.09486 6.66406 9.28055 6.87412 9.52137 6.88133C9.77051 6.88877 9.97482 6.68902 9.97482 6.44158V1.95418H11.9551C12.1171 1.95418 12.2484 2.08549 12.2484 2.2475L12.2483 7.51402ZM13.1282 13.2376V9.88959L13.8595 9.22479C13.9926 9.10379 14.2022 9.12998 14.3014 9.27998L15.4315 10.9882C15.5142 11.1131 15.4894 11.2803 15.3741 11.3759L13.1282 13.2376Z" fill="black"/>
<path d="M17.3114 24.6897L14.0407 21.9785C13.9254 21.8829 13.9006 21.7158 13.9833 21.5908L15.6145 19.1252C15.7137 18.9752 15.9233 18.949 16.0564 19.07L17.3114 20.2109V24.6897Z" fill="#7CD7F1"/>
<path d="M29.5598 13.7861V28.6927C29.5598 28.8547 29.4285 28.986 29.2665 28.986H18.2565C18.0945 28.986 17.9631 28.8547 17.9631 28.6927V26.4723L17.3115 24.6899V12.3236C17.3115 12.1616 17.4428 12.0303 17.6048 12.0303H26.3165C26.4785 12.0303 26.6098 12.1616 26.6098 12.3236V13.4928H29.2665C29.4285 13.4928 29.5598 13.6241 29.5598 13.7861Z" fill="#ED5E4A"/>
<path d="M29.5603 13.7859V28.6928C29.5603 28.8548 29.4289 28.9862 29.2669 28.9862H27.8232V13.4927H29.2669C29.4289 13.4927 29.5603 13.624 29.5603 13.7859Z" fill="#D85041"/>
<path d="M29.7068 13.0523H27.0501V11.8832C27.0501 11.7212 26.9188 11.5898 26.7568 11.5898H17.1652C17.0032 11.5898 16.8719 11.7212 16.8719 11.8832V19.2161L16.0996 18.514C16.0046 18.4276 15.8769 18.3871 15.7491 18.4029C15.6217 18.4189 15.5076 18.4897 15.4367 18.5968L13.4715 21.5675C13.3475 21.7549 13.3847 22.0056 13.5576 22.149L16.9395 24.9523L17.5235 26.5498V29.1323C17.5235 29.2943 17.6548 29.4256 17.8168 29.4256H19.2239C19.4714 29.4256 19.6711 29.2212 19.6636 28.9721C19.6564 28.7313 19.4463 28.5456 19.2054 28.5456H18.6968C18.5348 28.5456 18.4035 28.4143 18.4035 28.2523V26.8205H29.1202V28.2523C29.1202 28.4143 28.9889 28.5456 28.8269 28.5456H22.333C22.0855 28.5456 21.8858 28.75 21.8933 28.9992C21.9005 29.24 22.1106 29.4256 22.3515 29.4256H29.7068C29.8688 29.4256 30.0002 29.2943 30.0002 29.1323V13.3457C30.0002 13.1837 29.8688 13.0523 29.7068 13.0523ZM18.0452 12.4698H20.0254V16.9572C20.0254 17.2002 20.2224 17.3972 20.4654 17.3972C20.7084 17.3972 20.9054 17.2002 20.9054 16.9572V12.4698H23.179V16.9572C23.179 17.2002 23.3759 17.3972 23.6189 17.3972C23.862 17.3972 24.0589 17.2002 24.0589 16.9572V12.4698H26.1703V13.4923V16.9571C26.1703 17.2001 26.3672 17.3971 26.6103 17.3971C26.8533 17.3971 27.0502 17.2001 27.0502 16.9571V13.9322H28.827C28.989 13.9322 29.1203 14.0636 29.1203 14.2256V18.0296H17.7519V12.763C17.7519 12.6011 17.8832 12.4698 18.0452 12.4698ZM14.5686 21.5039L15.6987 19.7957C15.798 19.6457 16.0076 19.6195 16.1406 19.7405L16.8719 20.4053V23.7533L14.626 21.8916C14.5107 21.796 14.4859 21.6288 14.5686 21.5039ZM18.2377 25.9405L17.7519 24.6116V20.2106V18.9096H29.1202V25.9404L18.2377 25.9405Z" fill="black"/>
</g>
</g>
<defs>
<clipPath id="clip0_332_140">
<rect width="30" height="30" fill="white" transform="translate(0 0.25)"/>
</clipPath>
</defs>
</svg>
