<svg width="31" height="31" viewBox="0 0 31 31" fill="none" xmlns="http://www.w3.org/2000/svg">
<g clip-path="url(#clip0_332_155)">
<path d="M29.7675 22.6263H1.23242C1.07065 22.6263 0.939453 22.4951 0.939453 22.3334V19.6099H30.0604V22.3334C30.0604 22.4951 29.9292 22.6263 29.7675 22.6263Z" fill="#E8EAE9"/>
<path d="M29.7377 22.6263H27.0142V19.6099H30.0306V22.3334C30.0306 22.4951 29.8995 22.6263 29.7377 22.6263Z" fill="#D6D4D4"/>
<path d="M10.6424 7.95597C10.7807 7.82179 11.0076 7.85624 11.1021 8.02423C14.979 14.9146 24.5708 15.1236 24.5708 15.1236C30.4974 15.2515 30.0529 19.6099 30.0529 19.6099H0.939453V10.1866C0.939453 9.99966 1.11178 9.86033 1.29442 9.90035C2.54399 10.1739 6.82222 10.8998 9.75836 8.81314L10.6424 7.95597Z" fill="#9DD74E"/>
<path d="M30.0526 19.6096L27.0144 19.6097C26.4806 18.3042 26.2762 16.7731 22.6955 16.6958C22.6955 16.6958 12.8113 16.4801 8.58203 9.47935C8.98984 9.2983 9.38477 9.07857 9.75801 8.81314L10.642 7.95597C10.7803 7.82179 11.0072 7.85624 11.1017 8.02423C14.9788 14.9143 24.5706 15.1237 24.5706 15.1237C30.4973 15.2514 30.0526 19.6096 30.0526 19.6096Z" fill="#80C11A"/>
<path d="M29.4103 16.4898C28.3933 15.339 26.7682 14.7315 24.5803 14.6843C24.557 14.6838 22.2132 14.6232 19.4229 13.7389C19.0165 13.6101 18.5874 13.4589 18.1454 13.2822L18.1943 13.202C18.3195 12.9965 18.2705 12.7209 18.0689 12.5895C17.8603 12.4536 17.5821 12.5177 17.4534 12.7288L17.3296 12.9317C16.8007 12.6882 16.2623 12.4071 15.7296 12.0826L15.8 12.0119C15.9698 11.8416 15.9867 11.5622 15.8215 11.3872C15.6506 11.2062 15.3651 11.2032 15.1905 11.3785L14.978 11.5917C14.5504 11.2923 14.1319 10.9619 13.73 10.5984C13.874 10.4289 13.8719 10.1703 13.7053 10.0032C13.5437 9.84102 13.2806 9.8392 13.104 9.98481L13.1021 9.98633C12.4983 9.3524 11.9479 8.63123 11.4851 7.80875C11.3657 7.59646 11.154 7.45888 10.9095 7.43685C10.6925 7.41734 10.479 7.50212 10.3226 7.65377L9.47687 8.47379C8.41158 9.22203 7.04089 9.66031 5.40231 9.77668C5.1602 9.79391 4.97792 10.0041 4.99509 10.2462C5.0122 10.4883 5.22261 10.6701 5.46454 10.6534C6.55075 10.5763 7.5339 10.3657 8.40677 10.0269C11.0627 14.1383 15.601 15.8873 18.983 16.6304C19.0148 16.6374 19.0465 16.6408 19.0777 16.6408C19.2831 16.6408 19.4677 16.4959 19.5087 16.2848C19.5547 16.0483 19.3917 15.8205 19.1565 15.7687C18.474 15.6183 17.7425 15.4251 16.9898 15.1776L17.681 14.0438C18.1567 14.2375 18.6489 14.4155 19.1573 14.5766C20.9096 15.132 22.4747 15.3753 23.4646 15.4815V19.1703H1.37891V18.4492H2.3917C2.54475 18.4492 2.68139 18.3373 2.69586 18.185C2.7125 18.0102 2.57551 17.8633 2.40424 17.8633H1.37891V10.3673C1.61557 10.4156 1.9345 10.4744 2.31043 10.5276C2.53168 10.559 2.75112 10.4265 2.80918 10.2107C2.87932 9.95018 2.70518 9.69565 2.44661 9.6592C1.99948 9.59627 1.63807 9.5252 1.40791 9.47522C1.20348 9.4308 0.986681 9.46496 0.815001 9.58449C0.615664 9.7233 0.5 9.94631 0.5 10.1866V19.6098V22.7727C0.5 22.9345 0.631192 23.0657 0.792969 23.0657H25.0324C25.273 23.0657 25.4828 22.8803 25.49 22.6397C25.4975 22.3909 25.298 22.1868 25.0508 22.1868H1.67188C1.5101 22.1868 1.37891 22.0556 1.37891 21.8938V21.5574H22.4248C22.6655 21.5574 22.8753 21.372 22.8825 21.1315C22.8899 20.8826 22.6904 20.6785 22.4432 20.6785H1.37891V20.0492H29.621V21.8938C29.621 22.0556 29.4898 22.1868 29.328 22.1868H28.2137C27.9731 22.1868 27.7633 22.3723 27.7561 22.6128C27.7486 22.8616 27.9481 23.0657 28.1953 23.0657H30.2069C30.3687 23.0657 30.4999 22.9345 30.4999 22.7727V19.6098C30.4999 19.5923 30.4986 19.5751 30.4966 19.5581C30.5145 19.1725 30.5006 17.7234 29.4103 16.4898ZM13.1586 13.418C12.6368 13.0936 12.1274 12.7327 11.6397 12.3312L13.047 11.171C13.4504 11.5442 13.8827 11.8968 14.3442 12.2274L13.171 13.4042C13.1666 13.4086 13.1628 13.4134 13.1586 13.418ZM9.21619 9.65908C9.49556 9.51178 9.76182 9.34977 10.0129 9.17129C10.0311 9.15834 10.0483 9.1441 10.0643 9.12857L10.8127 8.40283C11.2621 9.17234 11.7992 9.88906 12.4193 10.5493L11.0559 11.6734C11.0274 11.6969 11.0031 11.7235 10.9822 11.7519C10.3344 11.1403 9.73732 10.4462 9.21619 9.65908ZM16.143 14.8783C15.4116 14.6012 14.6702 14.2702 13.9431 13.8746L15.0878 12.7264C15.6458 13.0764 16.2404 13.3975 16.8677 13.6895L16.143 14.8783ZM24.3437 19.1704V15.554C24.47 15.5607 24.5452 15.5626 24.5613 15.563C26.487 15.6046 27.8938 16.1088 28.7428 17.0618C29.409 17.8095 29.5744 18.6779 29.611 19.1704H24.3437Z" fill="black"/>
<path d="M22.9121 18.4492C23.0739 18.4492 23.2051 18.3181 23.2051 18.1563C23.2051 17.9944 23.0739 17.8633 22.9121 17.8633H21.4473C21.2854 17.8633 21.1543 17.9944 21.1543 18.1563C21.1543 18.3181 21.2854 18.4492 21.4473 18.4492H22.9121Z" fill="black"/>
<path d="M3.86914 18.4492H5.33399C5.49577 18.4492 5.62696 18.3181 5.62696 18.1563C5.62696 17.9944 5.49577 17.8633 5.33399 17.8633H3.86914C3.70736 17.8633 3.57617 17.9944 3.57617 18.1563C3.57617 18.3181 3.70736 18.4492 3.86914 18.4492Z" fill="black"/>
<path d="M14.1231 18.4492C14.2848 18.4492 14.416 18.3181 14.416 18.1563C14.416 17.9944 14.2848 17.8633 14.1231 17.8633H12.6582C12.4964 17.8633 12.3652 17.9944 12.3652 18.1563C12.3652 18.3181 12.4964 18.4492 12.6582 18.4492H14.1231Z" fill="black"/>
<path d="M19.9824 18.4492C20.1443 18.4492 20.2754 18.3181 20.2754 18.1563C20.2754 17.9944 20.1443 17.8633 19.9824 17.8633H18.5176C18.3557 17.8633 18.2246 17.9944 18.2246 18.1563C18.2246 18.3181 18.3557 18.4492 18.5176 18.4492H19.9824Z" fill="black"/>
<path d="M17.0527 18.4492C17.2146 18.4492 17.3457 18.3181 17.3457 18.1563C17.3457 17.9944 17.2146 17.8633 17.0527 17.8633H15.5879C15.4261 17.8633 15.2949 17.9944 15.2949 18.1563C15.2949 18.3181 15.4261 18.4492 15.5879 18.4492H17.0527Z" fill="black"/>
<path d="M11.1934 18.4492C11.3551 18.4492 11.4863 18.3181 11.4863 18.1563C11.4863 17.9944 11.3551 17.8633 11.1934 17.8633H9.72852C9.56674 17.8633 9.43555 17.9944 9.43555 18.1563C9.43555 18.3181 9.56674 18.4492 9.72852 18.4492H11.1934Z" fill="black"/>
<path d="M8.26368 18.4492C8.42545 18.4492 8.55665 18.3181 8.55665 18.1563C8.55665 17.9944 8.42545 17.8633 8.26368 17.8633H6.79883C6.63705 17.8633 6.50586 17.9944 6.50586 18.1563C6.50586 18.3181 6.63705 18.4492 6.79883 18.4492H8.26368Z" fill="black"/>
</g>
<defs>
<clipPath id="clip0_332_155">
<rect width="30" height="30" fill="white" transform="translate(0.5 0.25)"/>
</clipPath>
</defs>
</svg>
