<svg width="31" height="31" viewBox="0 0 31 31" fill="none" xmlns="http://www.w3.org/2000/svg">
<g clip-path="url(#clip0_332_69)">
<mask id="mask0_332_69" style="mask-type:luminance" maskUnits="userSpaceOnUse" x="0" y="0" width="31" height="31">
<path d="M30.5 0.25H0.5V30.25H30.5V0.25Z" fill="white"/>
</mask>
<g mask="url(#mask0_332_69)">
<path d="M23.5594 7.56027V0.979356C23.5594 0.818164 23.4287 0.6875 23.2675 0.6875H20.434C20.2831 0.6875 20.1573 0.80293 20.1436 0.953223C19.9496 3.08469 19.23 4.42491 18.4132 5.26743C16.826 6.9046 14.1736 6.9046 12.5864 5.26743C11.7697 4.42497 11.0501 3.08475 10.856 0.953223C10.8423 0.802989 10.7165 0.6875 10.5656 0.6875H7.73209C7.5709 0.6875 7.44024 0.818164 7.44024 0.979356V7.56021C7.44024 8.10601 7.30729 8.64361 7.05293 9.12654L6.4459 10.279C6.19154 10.7619 6.05859 11.2995 6.05859 11.8453V29.5203C6.05859 29.6814 6.18926 29.8121 6.35045 29.8121H15.4998H24.6491C24.8103 29.8121 24.941 29.6814 24.941 29.5203V11.8454C24.941 11.2996 24.808 10.762 24.5537 10.279L23.9467 9.1266C23.6922 8.64367 23.5594 8.10607 23.5594 7.56027Z" fill="#7CD7F1"/>
<path d="M24.9413 11.8453V29.5203C24.9413 29.6814 24.8106 29.8121 24.6494 29.8121H22.6994V11.8453C22.6994 11.2996 22.5663 10.762 22.3119 10.2787L21.7048 9.1266C21.4504 8.64332 21.3179 8.10578 21.3179 7.56003V0.6875H23.2679C23.4291 0.6875 23.5597 0.818164 23.5597 0.979356V7.56009C23.5597 8.10584 23.6922 8.64338 23.9467 9.12666L24.5537 10.2788C24.8082 10.762 24.9413 11.2996 24.9413 11.8453Z" fill="#68C9E0"/>
<path d="M17.7293 11.5146H15.2494C15.121 11.5146 15.0077 11.5986 14.9702 11.7214L13.1638 17.6455C13.1066 17.833 13.2469 18.0224 13.4429 18.0224H15.3259C15.5259 18.0224 15.6666 18.2191 15.6021 18.4084L14.1824 22.5742C14.0733 22.8942 14.5046 23.1126 14.6979 22.8353L18.9156 16.7886C19.0505 16.5951 18.9121 16.3298 18.6762 16.3298H16.4228C16.2099 16.3298 16.0687 16.1092 16.1577 15.9159L17.9943 11.9285C18.0834 11.7352 17.9421 11.5146 17.7293 11.5146Z" fill="#FFD527"/>
<path d="M24.9411 10.0752L24.334 8.92271C24.1137 8.50435 23.9972 8.03332 23.9972 7.56041V0.979552C23.9972 0.577305 23.6699 0.25 23.2676 0.25H20.4341C20.0545 0.25 19.7423 0.535352 19.7078 0.913751C19.5484 2.66383 19.0072 4.0262 18.0991 4.96294C17.4146 5.66894 16.4915 6.05777 15.5 6.05777C14.5084 6.05777 13.5853 5.66894 12.9009 4.96294C11.9928 4.02614 11.4515 2.66383 11.2922 0.913693C11.2576 0.535352 10.9454 0.25 10.5658 0.25H7.73229C7.32998 0.25 7.00274 0.577305 7.00274 0.979552V7.56041C7.00274 8.03326 6.88625 8.50435 6.66588 8.92271L6.05885 10.0751C5.77244 10.6188 5.62109 11.231 5.62109 11.8455V12.7694C5.62109 13.0112 5.81709 13.2072 6.05885 13.2072C6.30061 13.2072 6.4966 13.0112 6.4966 12.7694V11.8455C6.4966 11.3726 6.61309 10.9015 6.83346 10.4832L7.44049 9.33076C7.7269 8.78707 7.87825 8.17488 7.87825 7.56041V1.12551H10.4331C10.6267 3.01721 11.2452 4.51288 12.2724 5.57237C13.1232 6.44999 14.2694 6.93333 15.5 6.93333C16.7305 6.93333 17.877 6.44993 18.7277 5.57237C19.7548 4.51288 20.3733 3.01721 20.567 1.12551H23.1218V7.56046C23.1218 8.175 23.2732 8.78713 23.5595 9.33082L24.1666 10.4833C24.3869 10.9017 24.5034 11.3727 24.5034 11.8456V21.8746C24.5034 22.1164 24.6994 22.3123 24.9412 22.3123C25.1829 22.3123 25.3789 22.1164 25.3789 21.8746V11.8456C25.3788 11.231 25.2275 10.6189 24.9411 10.0752Z" fill="black"/>
<path d="M24.9411 24.5593C24.6994 24.5593 24.5034 24.7553 24.5034 24.997V29.3745H6.4966V15.9212C6.4966 15.6794 6.30061 15.4834 6.05885 15.4834C5.81709 15.4834 5.62109 15.6794 5.62109 15.9212V29.5204C5.62109 29.9227 5.9484 30.2499 6.35065 30.2499H24.6493C25.0516 30.2499 25.3788 29.9226 25.3788 29.5204V24.997C25.3789 24.7553 25.1829 24.5593 24.9411 24.5593Z" fill="black"/>
<path d="M18.3434 11.4132C18.2085 11.2028 17.9789 11.0771 17.7291 11.0771H15.2491C14.926 11.0771 14.6455 11.2848 14.5513 11.5939L12.7448 17.5181C12.6777 17.7383 12.7194 17.9801 12.8564 18.1651C12.9934 18.35 13.2125 18.4605 13.4427 18.4605H15.1217L13.7678 22.4334C13.6493 22.781 13.8011 23.1537 14.1287 23.3196C14.2357 23.3738 14.3493 23.3998 14.4612 23.3998C14.692 23.3998 14.9153 23.289 15.0568 23.0861L19.2745 17.0394C19.4305 16.8156 19.4491 16.5264 19.3229 16.2846C19.1967 16.0427 18.9489 15.8924 18.6761 15.8924H16.6505L18.3918 12.112C18.4962 11.8849 18.4782 11.6237 18.3434 11.4132ZM15.76 15.733C15.6554 15.96 15.6734 16.2212 15.8081 16.4317C15.9429 16.6422 16.1726 16.7678 16.4225 16.7678H18.3963L14.9297 21.7378L16.0162 18.5499C16.0919 18.3276 16.0556 18.0809 15.9189 17.8899C15.7822 17.699 15.5604 17.5849 15.3257 17.5849H13.6397L15.3572 11.9526H17.5012L15.76 15.733Z" fill="black"/>
</g>
</g>
<defs>
<clipPath id="clip0_332_69">
<rect width="30" height="30" fill="white" transform="translate(0.5 0.25)"/>
</clipPath>
</defs>
</svg>
