<svg width="201" height="157" viewBox="0 0 201 157" fill="none" xmlns="http://www.w3.org/2000/svg">
<g clip-path="url(#clip0_332_48)">
<path d="M40.1933 73.1906C29.6261 68.0527 20.8808 58.9067 17.164 47.7929C13.4473 36.6791 15.087 23.6705 22.229 14.3422C29.3709 5.01393 42.0517 0.0582776 53.4569 2.86405C66.2105 6.03421 75.8666 17.8039 88.9117 19.4436C97.7662 20.5368 106.366 16.7472 115.111 14.8888C123.82 13.0304 134.569 14.0143 139.27 21.5571C143.606 28.5533 140.764 37.5901 137.812 45.2786C133.585 56.3195 129.176 67.6155 121.415 76.5065C114.929 83.94 106.366 89.3693 99.8069 96.7299C95.6894 101.358 92.337 106.751 87.2356 110.249C79.2191 115.714 68.7247 115.204 59.032 114.512C52.0358 114.002 44.9667 113.492 38.2984 111.269C31.6302 109.046 25.3628 104.929 21.974 98.7705C15.9981 87.8754 20.5893 74.4295 25.217 62.9149" fill="#F4F6F9"/>
<path d="M187.15 51.109C186.422 48.0481 185.511 44.9873 183.798 42.3273C180.592 37.3716 175.271 36.6793 169.988 35.1853C167.401 34.4566 165.688 34.3836 163.283 35.6954C159.384 37.8089 155.522 39.9952 151.951 42.6188C148.853 44.9144 145.975 47.6109 143.716 50.781C143.533 50.6353 143.315 50.4895 143.133 50.3074L142.914 50.4166C140.728 51.0361 138.468 51.692 136.756 53.4411C135.043 55.1901 134.096 58.3967 135.262 60.6924C130.926 60.1822 126.772 63.1337 123.784 66.9234C120.759 70.713 118.573 75.3407 115.913 79.4947C114.455 81.7903 112.451 84.1588 110.046 83.9766C108.589 83.8673 107.313 82.8106 105.892 82.3004C104.617 81.8632 102.977 82.1547 102.358 83.43C102.285 83.5393 102.212 83.6122 102.139 83.7216C101.593 80.2963 98.6776 78.0371 95.8718 77.3448C92.9931 76.6525 89.9688 77.0897 87.0537 76.7618C79.7296 75.8508 73.5349 70.0571 67.7776 64.4455L67.1947 65.0285C66.8303 59.9271 66.3565 47.3923 66.3565 47.3923C70.2554 46.4084 78.1263 44.3314 78.1263 44.3314C73.535 38.647 68.5429 32.088 63.3686 25.6384C61.656 23.4885 59.3603 21.5937 56.7367 20.8649C56.7367 20.8649 53.1294 15.5085 47.6636 25.3469C45.9874 28.3713 44.8214 31.4321 44.0197 34.2015C42.1249 33.6549 39.9021 34.1286 38.481 35.5497C36.5862 37.4081 36.3676 40.724 37.9709 42.8374C38.9911 44.1492 40.6308 44.9144 42.2705 44.9873C42.2705 45.0602 42.2705 45.133 42.2705 45.133C39.4648 51.7649 36.9141 57.2671 34.0719 63.0244L34.6914 61.749C16.5449 78.8023 2.11531 103.034 1.24078 128.25C0.98571 135.355 2.66182 142.971 7.3624 147.598C11.5164 151.716 17.3466 152.882 22.8853 152.627C28.424 152.372 33.8532 150.841 39.3555 150.258C43.8738 149.785 48.4287 149.894 52.9107 150.623C56.1173 151.169 59.3239 152.008 62.5669 151.862C65.7006 151.752 68.9802 150.55 71.0208 147.854C72.1503 147.489 73.28 147.015 74.3002 146.396C75.0654 145.959 75.7942 145.376 76.4865 144.72C76.1222 145.521 75.7577 146.323 75.3569 147.088C76.7416 147.125 78.1262 147.234 79.5474 147.38C79.5109 148.036 79.4381 148.692 79.4016 149.348C85.0861 150.514 90.8798 151.352 96.6735 151.862C99.1149 152.882 101.447 154.085 103.706 155.433C104.143 154.413 104.544 153.392 104.981 152.372C106.912 152.518 108.844 152.846 110.411 153.939C111.103 151.315 111.795 148.692 112.378 146.032C113.508 140.602 114.091 135.136 114.346 129.598C115.366 127.156 116.35 124.715 117.37 122.274C120.905 120.962 124.367 119.286 127.1 117.136C133.294 112.253 138.104 105.913 142.513 99.4266C145.574 94.9446 148.708 90.2441 149.509 84.8876C149.874 82.4826 149.801 79.9684 150.785 77.7456C151.513 76.1423 152.752 74.7941 153.518 73.1908C155.485 69.0003 153.846 63.5345 156.651 59.8907L156.578 59.5992C157.708 59.6721 158.801 59.7085 159.931 59.7085C163.939 59.6721 167.874 58.9069 171.846 58.506C171.955 58.506 172.065 58.4696 172.174 58.4696C172.757 58.3967 173.377 58.3603 173.96 58.3239C174.105 58.5789 174.251 58.8704 174.397 59.1255C174.543 59.3806 174.761 59.6356 175.016 59.6356C175.381 59.5992 175.563 59.089 175.599 58.6518C175.599 58.5424 175.636 58.3967 175.636 58.2874C175.927 58.2874 176.219 58.2874 176.474 58.2509C176.693 58.7975 177.02 59.3441 177.531 59.2712C178.004 59.1984 178.223 58.6882 178.332 58.1052C178.66 58.0687 178.988 58.0323 179.316 57.9595C179.753 58.6154 180.373 59.089 181.029 58.7975C181.612 58.506 181.83 57.7408 181.903 57.012C182.34 56.7205 182.668 56.3561 182.887 55.8824C183.252 54.9715 182.814 53.9148 182.085 53.2224C182.085 52.7487 182.122 52.2386 182.122 51.7649C182.158 50.9632 182.158 50.198 182.158 49.3964C182.887 50.3438 183.652 51.2547 184.454 52.1657C185.073 52.8945 186.13 53.6233 186.859 53.0402C187.405 52.6394 187.333 51.8013 187.15 51.109ZM169.223 47.0643C169.259 46.627 169.368 46.1533 169.514 45.7161C169.915 47.2829 170.935 48.6676 172.32 49.1777C172.247 50.0522 172.211 50.9268 172.247 51.8013C171.628 51.7649 171.008 51.692 170.462 51.4369C168.895 50.7446 169.077 48.5219 169.223 47.0643Z" fill="white"/>
<path d="M159.348 119.249H137.63C137.339 119.249 137.084 118.994 137.084 118.703C137.084 118.411 137.339 118.156 137.63 118.156H158.801V100.848C158.801 100.556 159.056 100.301 159.348 100.301H174.543V85.5434C174.543 85.2519 174.798 84.9968 175.089 84.9968H200.196C200.487 84.9968 200.742 85.2519 200.742 85.5434C200.742 85.8349 200.487 86.09 200.196 86.09H175.636V100.848C175.636 101.139 175.381 101.394 175.089 101.394H159.894V118.703C159.894 118.994 159.639 119.249 159.348 119.249Z" fill="#3F4254"/>
<path d="M95.2889 2.57271C94.6694 2.06257 94.05 1.58887 93.2848 1.29736C92.4103 0.969415 91.3535 0.96938 90.5519 1.44308C90.4061 1.29733 90.1876 1.2609 89.969 1.40665C88.0013 2.49981 86.8351 4.79545 86.908 7.01821C86.9809 9.38672 88.475 11.3544 90.6613 12.2289C92.8112 13.1035 95.4348 12.7391 97.0745 11.0265C97.9491 10.1155 98.5321 8.913 98.4956 7.63765C98.4592 6.32586 97.8032 5.15982 96.9286 4.17598C96.4549 3.55652 95.8719 3.04642 95.2889 2.57271ZM96.455 10.0426C93.8679 12.9577 88.5478 11.3179 88.0377 7.45545C87.819 5.77928 88.475 3.99379 89.7503 2.8642C89.969 3.15571 90.4427 3.26502 90.6613 2.8642C91.135 1.95323 92.3374 1.9897 93.1755 2.39052C94.1594 2.86422 95.0703 3.70229 95.872 4.50394C96.6007 5.26915 97.2931 6.18011 97.4025 7.23683C97.5482 8.25711 97.1109 9.31386 96.455 10.0426ZM94.961 5.4878C94.5237 6.58096 94.0864 7.67412 93.6492 8.76728C93.5763 8.94947 93.467 9.09523 93.2848 9.13167C93.1026 9.16811 92.884 9.13166 92.7382 8.9859C92.0094 8.11138 91.2444 7.23683 90.5156 6.32587C90.3334 6.10723 90.297 5.7793 90.5156 5.56066C90.7342 5.34203 91.062 5.37847 91.2807 5.56066C91.4629 5.70642 91.6087 5.81573 91.7909 5.96148C91.9003 6.0708 91.9731 6.21654 91.9367 6.3623C92.2646 6.76312 92.5925 7.16396 92.9569 7.56479C93.2848 6.76314 93.6128 5.9615 93.9043 5.15985C94.0136 4.86834 94.2686 4.72258 94.5601 4.79546C94.8152 4.86834 95.0339 5.23273 94.961 5.4878ZM124.804 1.40665C122.035 -0.160209 118.865 0.89652 116.095 1.9168C115.439 2.17187 115.731 3.2286 116.387 2.97353C116.423 2.97353 116.496 2.9371 116.533 2.9371C115.148 4.39465 114.82 6.65382 115.622 8.47575C116.569 10.5892 119.01 11.8646 121.27 11.6824C123.638 11.4637 125.788 9.824 126.735 7.67412C127.245 6.47165 127.464 5.08698 126.99 3.84807C126.553 2.79135 125.751 1.95323 124.804 1.40665ZM126.043 6.28944C125.569 8.25712 123.966 9.93331 122.035 10.4434C120.213 10.9172 118.099 10.2612 117.006 8.69438C115.804 7.0182 116.132 4.5768 117.735 3.26501C118.063 3.00994 117.917 2.64557 117.662 2.46338C119.448 1.84392 121.342 1.33379 123.201 1.88037C125.168 2.49983 126.517 4.176 126.043 6.28944ZM124.658 4.50394C123.383 5.63353 122.436 7.09107 121.962 8.73081C121.853 9.05875 121.452 9.24096 121.16 9.05876C119.921 8.25711 118.937 7.16397 118.282 5.88862C117.954 5.26916 118.901 4.72258 119.229 5.34204C119.703 6.25301 120.358 7.0911 121.16 7.71055C121.743 6.18013 122.654 4.79545 123.893 3.73873C124.403 3.26503 125.168 4.03023 124.658 4.50394ZM113.472 7.41902C109.026 7.41902 104.617 7.45545 100.172 7.45545C99.4795 7.45545 99.4795 6.3623 100.172 6.3623C104.617 6.3623 109.026 6.32587 113.472 6.32587C114.164 6.32587 114.164 7.41902 113.472 7.41902ZM145.064 7.12754C140.327 7.56481 135.554 7.63767 130.78 7.34617C130.088 7.30973 130.088 6.21657 130.78 6.25301C135.554 6.54452 140.327 6.47165 145.064 6.03438C145.756 5.96151 145.756 7.05467 145.064 7.12754ZM159.712 8.18423C158.692 10.2612 155.995 10.735 153.955 10.407C151.659 10.0426 149.509 8.47575 149.145 6.10724C148.781 3.92093 150.311 1.69816 152.57 1.58885C153.263 1.55241 153.263 2.64557 152.57 2.682C151.659 2.75488 150.858 3.37433 150.457 4.17598C150.02 5.05051 150.129 6.14368 150.566 7.01821C151.477 8.76726 153.481 9.45959 155.34 9.42315C156.943 9.38671 158.838 8.58505 158.984 6.72668C159.093 4.94119 157.817 3.30148 156.36 2.42695C154.866 1.51599 153.08 1.22449 151.404 1.66175C150.712 1.84394 150.42 0.787213 151.113 0.60502C153.518 -0.0144361 156.105 0.64145 157.963 2.28119C159.603 3.66586 160.733 6.10723 159.712 8.18423Z" fill="#3F4254"/>
<path d="M102.941 118.448C103.196 119.759 104.252 120.78 105.491 121.18C104.69 121.654 104.034 122.492 103.524 123.221C102.904 124.132 102.467 125.152 102.212 126.209C101.775 126.464 101.629 127.011 101.92 127.484C102.321 128.14 103.305 128.067 103.961 128.104C105.637 128.213 107.313 128.359 108.989 128.468C109.281 128.505 109.536 128.213 109.536 127.922C109.572 126.756 109.463 125.553 109.245 124.387C109.062 123.44 108.844 122.419 108.224 121.618C108.078 121.399 107.86 121.253 107.678 121.144C108.698 120.78 109.573 119.942 109.973 118.885C110.52 117.391 109.9 115.642 108.662 114.731C107.24 113.674 105.054 113.966 103.888 115.277C103.779 115.387 103.742 115.496 103.742 115.605C103.05 116.371 102.758 117.5 102.941 118.448ZM108.078 124.096C108.334 125.152 108.443 126.245 108.443 127.375C107.459 127.302 106.475 127.229 105.491 127.156C104.945 127.12 104.362 127.084 103.815 127.047C103.597 127.047 103.341 127.011 103.123 127.011C103.159 126.974 103.196 126.901 103.196 126.828C103.451 125.735 103.888 124.679 104.544 123.768C104.836 123.33 105.2 122.93 105.564 122.565C105.892 122.274 106.329 121.946 106.803 122.055C107.641 122.164 107.933 123.403 108.078 124.096ZM105.163 116.079C105.491 116.006 105.601 115.715 105.528 115.46C106.147 115.168 106.912 115.132 107.568 115.423C108.589 115.86 109.208 117.063 109.026 118.12C108.88 119.213 107.86 120.124 106.803 120.233C105.71 120.379 104.58 119.65 104.143 118.666C103.742 117.755 104.07 116.334 105.163 116.079ZM110.52 135.209C110.556 136.011 109.755 136.521 109.026 136.485C108.589 136.485 108.151 136.266 107.714 136.23C107.277 136.193 106.803 136.448 106.366 136.485C105.382 136.594 104.544 136.12 103.633 135.865C103.05 135.683 102.285 135.574 101.847 136.12C101.41 136.667 100.645 135.902 101.082 135.355C102.103 134.08 103.815 134.809 105.054 135.209C105.491 135.355 105.929 135.464 106.366 135.392C106.803 135.319 107.204 135.136 107.641 135.136C107.896 135.136 109.427 135.647 109.427 135.209C109.39 134.517 110.484 134.517 110.52 135.209ZM96.6735 127.302C97.0014 122.674 97.3657 118.01 97.6937 113.383C97.6937 113.128 97.8394 112.982 98.0216 112.909C98.0216 112.617 98.2767 112.362 98.5682 112.362C100.026 112.289 101.483 112.217 102.904 112.144C103.196 112.144 103.451 112.399 103.451 112.69C103.451 112.982 103.196 113.237 102.904 113.237C101.52 113.31 100.135 113.383 98.7504 113.419C98.4224 118.047 98.0581 122.674 97.7302 127.302C97.7302 127.994 96.637 127.994 96.6735 127.302ZM100.864 131.092C100.244 130.837 99.5521 131.019 99.1512 131.493C98.6775 132.039 97.9123 131.238 98.386 130.727C98.8961 130.144 99.6978 129.816 100.463 129.889C101.337 129.962 101.884 130.472 102.503 131.055C103.269 131.784 104.435 131.456 105.382 131.383C106.475 131.31 107.605 131.201 108.698 131.128C109.39 131.092 109.39 132.185 108.698 132.221C107.641 132.294 106.621 132.367 105.564 132.476C104.69 132.549 103.669 132.768 102.795 132.513C102.394 132.404 102.066 132.148 101.738 131.857C101.483 131.565 101.228 131.274 100.864 131.092ZM55.0605 27.4603C55.0605 27.7518 54.8054 28.0069 54.5139 28.0069C54.441 28.0069 54.3681 28.0069 54.3317 28.0069C54.2953 28.0069 54.2589 28.0069 54.2225 28.0069H54.186C54.1496 28.0069 54.1495 28.0069 54.113 28.0069C54.0402 28.0069 54.0037 28.0433 53.9309 28.0433C53.8215 28.0798 53.7123 28.1162 53.6029 28.1527C53.5665 28.1527 53.5666 28.1527 53.5302 28.1891C53.4937 28.2255 53.4207 28.2256 53.3843 28.262C53.275 28.3349 53.1657 28.3713 53.0564 28.4442C53.0199 28.4442 53.02 28.4806 52.9836 28.4806L52.9471 28.5171C52.9107 28.5535 52.9106 28.5535 52.8742 28.5899C52.8013 28.6628 52.6921 28.7357 52.6192 28.845C52.5828 28.8815 52.5462 28.9179 52.5098 28.9543C52.5098 28.9907 52.4733 28.9908 52.4733 29.0272C52.2911 29.2823 51.9997 29.3552 51.7082 29.2094C51.4532 29.0636 51.3439 28.6993 51.526 28.4442C52.2184 27.4604 53.3479 26.8409 54.5504 26.8409C54.8419 26.9138 55.0605 27.1688 55.0605 27.4603ZM59.2509 80.7701C59.2874 80.6607 59.2874 80.7336 59.2509 80.7701V80.7701ZM58.8501 81.2802C58.7772 81.3531 58.8136 81.3166 58.8501 81.2802V81.2802ZM59.2145 79.7498C59.2509 79.7862 59.2509 79.8226 59.2145 79.7498V79.7498ZM58.4129 81.4988C58.34 81.4988 58.3765 81.4988 58.4129 81.4988V81.4988ZM57.3562 80.4421C57.3562 80.4057 57.3562 80.4057 57.3562 80.3692C57.3562 80.3692 57.3562 80.4057 57.3562 80.4421ZM58.1578 81.4988C58.1578 81.4988 58.1943 81.4988 58.2307 81.4988C58.1943 81.4988 58.1943 81.4988 58.2672 81.4988H58.2307C58.2672 81.4988 58.267 81.4988 58.3035 81.4988C58.3035 81.4988 58.3036 81.4988 58.2672 81.4988C58.3401 81.4988 58.4128 81.4988 58.4857 81.4988C58.5221 81.4988 58.5222 81.4988 58.5586 81.4624C58.5951 81.4624 58.6316 81.4259 58.6316 81.4259C58.7045 81.3895 58.7409 81.3531 58.8138 81.3166C58.8502 81.2802 58.8866 81.2802 58.923 81.2437C58.923 81.2437 58.923 81.2437 58.8865 81.2437C58.923 81.2073 58.9594 81.1709 59.0323 81.098C59.0687 81.0616 59.0688 81.0251 59.1052 81.0251C59.1781 80.9158 59.251 80.8065 59.2874 80.6972C59.2874 80.6972 59.2874 80.6972 59.2874 80.7336C59.2874 80.6972 59.3239 80.6607 59.3239 80.6607C59.3603 80.5878 59.3603 80.5514 59.3603 80.4785C59.3603 80.4056 59.3966 80.3692 59.3966 80.2963C59.3602 80.4785 59.3966 80.2963 59.3966 80.2235C59.3966 80.187 59.3966 80.1506 59.3966 80.1141C59.3966 80.1141 59.3966 80.0777 59.3966 80.0413C59.3966 80.0413 59.3966 80.0413 59.3966 80.0049C59.3966 80.0049 59.3966 80.0048 59.3966 80.0413C59.3966 80.0048 59.3966 80.0048 59.3966 79.9684C59.3966 79.9319 59.3968 79.932 59.3603 79.8955V79.8591C59.3239 79.8226 59.3239 79.7862 59.3239 79.8227C59.3239 79.7862 59.2874 79.7498 59.2874 79.7133C59.2874 79.6769 59.2509 79.6769 59.2509 79.6405V79.6769C59.2145 79.6405 59.1781 79.604 59.1417 79.5676C59.1052 79.5676 59.1052 79.5311 59.0687 79.5311C59.0323 79.5311 59.0324 79.4947 58.996 79.4947C58.9595 79.4947 58.9229 79.4583 58.8501 79.4583C58.7772 79.4583 58.6316 79.4583 58.8138 79.4583C58.7045 79.4583 58.595 79.4583 58.4857 79.4583C58.4492 79.4583 58.4129 79.4583 58.4129 79.4583C58.34 79.4583 58.3036 79.4947 58.2307 79.4947C58.1943 79.4947 58.1577 79.5311 58.1213 79.5311C58.0849 79.5676 58.0485 79.5676 58.012 79.604C57.9756 79.6404 57.9028 79.6769 57.8663 79.7133C57.8299 79.7133 57.8298 79.7498 57.7934 79.7498C57.7205 79.8226 57.6476 79.8955 57.5747 79.9684C57.5747 80.0048 57.5384 80.0048 57.5384 80.0413C57.502 80.0777 57.5019 80.1506 57.4655 80.187V80.2235C57.4655 80.2599 57.4655 80.2599 57.4655 80.2963C57.4655 80.2963 57.4655 80.3328 57.4655 80.3692V80.4057C57.4655 80.4057 57.4655 80.4057 57.4655 80.3692C57.4655 80.4057 57.4655 80.4421 57.4655 80.4421C57.4655 80.4785 57.4655 80.515 57.4655 80.515C57.4655 80.5514 57.4655 80.5514 57.4655 80.5514C57.5019 80.8429 57.3561 81.098 57.0646 81.1709C56.8095 81.2437 56.4452 81.0616 56.4088 80.8065C56.3359 80.3692 56.3723 79.9684 56.591 79.5676C56.7732 79.2396 57.0283 78.9481 57.3562 78.7295C57.9028 78.3651 58.595 78.1829 59.2509 78.3651C60.0161 78.5473 60.4899 79.2032 60.5992 79.9684C60.745 81.353 59.3967 82.8106 57.9756 82.4462C57.6841 82.3733 57.5383 82.0454 57.6112 81.7903C57.5383 81.5717 57.8663 81.4259 58.1578 81.4988ZM59.3603 80.1141C59.3603 80.1506 59.3603 80.1506 59.3603 80.187C59.3603 80.187 59.3603 80.187 59.3603 80.1141ZM57.0646 32.7804C57.1739 33.0719 57.1375 33.3634 56.8824 33.5456C56.6638 33.6914 56.2629 33.6185 56.1172 33.3634C55.7528 32.5253 55.3521 31.6872 54.9877 30.8491C54.8784 30.5576 54.9148 30.2661 55.1699 30.0839C55.3885 29.9382 55.7892 30.0111 55.935 30.2661C56.2994 31.0678 56.7002 31.9423 57.0646 32.7804ZM58.7773 33.0355C58.7044 32.4889 58.5586 31.9787 58.3764 31.4686C58.34 31.3593 58.2672 31.2135 58.2307 31.1042C58.2307 31.0678 58.1942 31.0313 58.1942 31.0313C58.1578 30.9585 58.1214 30.8856 58.085 30.8127C57.9757 30.5576 57.8299 30.3026 57.6841 30.0839C57.5384 29.8289 57.6477 29.5009 57.8663 29.3187C58.1214 29.1729 58.4858 29.2823 58.6316 29.5009C59.2146 30.4847 59.6153 31.6143 59.7975 32.7439C59.8339 33.0354 59.7246 33.327 59.4331 33.3998C59.178 33.5092 58.8137 33.327 58.7773 33.0355ZM57.7206 26.5129C57.4655 26.6951 57.1376 26.5494 56.9554 26.3307C56.7732 26.0757 56.9189 25.7477 57.1376 25.5655C58.1578 24.9096 59.5424 24.7275 60.672 25.1647C60.9635 25.274 61.1093 25.5291 61.0364 25.8206C60.9635 26.0757 60.6356 26.2943 60.3806 26.185C60.2712 26.1485 60.1255 26.1121 60.0162 26.0757C59.9433 26.0757 59.8704 26.0392 59.834 26.0392C59.7975 26.0392 59.761 26.0392 59.761 26.0392C59.506 26.0028 59.251 26.0028 58.996 26.0392H58.9595C58.9231 26.0392 58.923 26.0392 58.8865 26.0392C58.8137 26.0392 58.7408 26.0757 58.7043 26.0757C58.595 26.1121 58.4858 26.1485 58.3764 26.185C58.34 26.185 58.2672 26.2214 58.2307 26.2579C58.2307 26.2579 58.1214 26.2943 58.085 26.3307C57.9392 26.3672 57.8299 26.4401 57.7206 26.5129ZM46.3152 39.558C46.4974 39.7766 46.5338 40.1046 46.3152 40.3232C46.133 40.5054 45.7322 40.5418 45.55 40.3232C44.4204 38.9021 42.6714 38.064 40.8494 38.1004C40.1571 38.1004 40.1571 37.0073 40.8494 37.0073C42.9264 36.9708 44.967 37.9182 46.3152 39.558ZM187.624 50.6718C187.442 49.9794 187.296 49.2871 187.078 48.6312C186.713 47.3923 186.312 46.1533 185.802 44.9509C184.818 42.6917 183.506 40.5783 181.539 39.0478C179.826 37.6996 177.822 36.8615 175.745 36.2056C174.725 35.8777 173.705 35.6226 172.648 35.3311C171.518 35.0396 170.352 34.7116 169.223 34.4201C168.093 34.165 166.927 34.0193 165.797 34.2015C164.522 34.3837 163.392 35.0031 162.263 35.6226C159.821 36.9708 157.38 38.319 155.048 39.813C150.748 42.5824 146.703 45.8619 143.643 49.9794C143.606 49.943 143.57 49.943 143.533 49.9065C143.351 49.7608 143.096 49.6879 142.877 49.8337C142.404 50.1252 141.711 50.198 141.165 50.3802C140.473 50.5989 139.817 50.8539 139.161 51.1454C137.922 51.7285 136.756 52.5301 135.918 53.6233C134.533 55.4088 133.841 57.923 134.496 60.1093C131.836 60.0729 129.322 61.2025 127.209 62.7694C124.622 64.7371 122.654 67.2878 120.941 70.0207C119.119 72.8629 117.589 75.8144 115.804 78.693C114.419 80.9158 112.232 84.341 109.172 83.2479C107.678 82.7013 106.366 81.5717 104.726 81.6081C103.852 81.6446 103.05 81.9361 102.467 82.5191C101.848 80.6607 100.536 79.0939 98.8233 78.0372C96.3819 76.5067 93.5396 76.4339 90.7339 76.4339C89.2034 76.4339 87.673 76.3974 86.179 76.1423C84.9037 75.8873 83.6284 75.5229 82.4259 75.0127C79.8752 73.956 77.5431 72.3891 75.4296 70.6765C72.8789 68.6724 70.5469 66.4132 68.2149 64.1541C68.0691 64.0083 67.887 63.9718 67.7048 64.0083C67.3768 59.0526 67.1947 54.0605 67.0125 49.1049C67.0125 48.7041 66.976 48.3032 66.976 47.9024C70.4012 47.0279 73.8628 46.1169 77.288 45.2424C77.616 45.1695 77.9805 45.0602 78.3084 44.9873C78.7457 44.878 78.782 44.3678 78.5634 44.0763C75.8669 40.724 73.2434 37.3716 70.5834 33.9829C69.1623 32.1974 67.7776 30.4119 66.3565 28.6264C65.0447 26.9867 63.8059 25.2012 62.2754 23.7436C61.2916 22.7962 60.2347 21.9946 59.0323 21.3387C59.8339 21.1565 60.7084 20.8649 61.583 20.3548C63.915 18.9701 66.3201 13.2128 63.3686 9.20459C58.1579 16.5288 53.4572 11.1723 45.9508 14.7432C40.1571 17.4761 40.3758 28.262 42.89 33.5456C41.141 33.4363 39.3554 34.0193 38.1165 35.2582C36.0395 37.3352 35.7845 40.9062 37.5699 43.2383C38.5174 44.5136 40.0113 45.2788 41.5782 45.5339C39.4648 50.5988 37.242 55.6274 34.8371 60.5466C34.7642 60.6924 34.7641 60.8017 34.8006 60.911C14.2856 80.2599 1.56858 105.439 0.766926 128.286C0.475417 136.63 2.77116 143.809 7.07092 148.072C11.3342 152.299 17.055 153.283 21.5734 153.283C22.0836 153.283 22.5572 153.283 22.9945 153.246C26.2375 153.101 29.4805 152.518 32.6143 151.935C34.8735 151.534 37.2055 151.097 39.5376 150.842C44.0196 150.368 48.5016 150.477 52.9471 151.206C53.7123 151.352 54.5139 151.497 55.2792 151.643C57.6841 152.117 60.1983 152.591 62.7126 152.481C66.3929 152.335 69.5266 150.842 71.4579 148.4C72.7697 147.963 74.0086 147.416 75.1382 146.651C75.1018 146.724 75.0654 146.833 75.029 146.906C74.8468 147.271 75.0653 147.708 75.5026 147.744C76.7051 147.781 77.9075 147.89 79.0735 147.999C79.0371 148.473 79.0007 148.983 78.9643 149.457C78.9643 149.675 79.1465 149.931 79.3651 149.967C83.5556 150.805 87.7459 151.497 92.0092 152.008C93.5396 152.19 95.0701 152.335 96.6005 152.445C97.0013 152.627 97.4023 152.773 97.8031 152.955C99.7708 153.866 101.665 154.85 103.524 155.979C103.852 156.162 104.18 155.979 104.325 155.651C104.69 154.777 105.054 153.902 105.419 153.028C107.095 153.174 108.771 153.538 110.228 154.485C110.52 154.668 110.957 154.485 111.03 154.157C111.759 151.352 112.524 148.582 113.107 145.74C113.69 142.934 114.091 140.092 114.419 137.25C114.674 134.772 114.856 132.258 115.002 129.78C115.949 127.484 116.86 125.225 117.808 122.93C119.083 119.832 120.358 116.771 121.634 113.674C121.743 113.419 121.524 113.055 121.269 113.018C119.229 112.727 117.152 112.399 115.111 112.034C115.111 111.451 115.075 110.905 115.075 110.322C115.075 109.994 114.82 109.812 114.528 109.775C108.88 109.301 103.232 108.937 97.5844 108.828C96.2726 108.573 94.9607 108.354 93.649 108.135C91.0618 107.698 88.4383 107.261 85.8511 106.897C85.5596 106.678 84.9766 106.787 84.9402 107.297C84.9037 107.88 84.9038 108.427 84.8674 109.01C84.6488 109.01 84.3935 109.01 84.1749 109.046C83.7376 109.083 83.5555 109.52 83.7013 109.848C83.6648 109.921 83.6283 109.994 83.6283 110.067C83.4097 111.342 83.2276 112.617 83.009 113.893C81.4057 113.783 79.8023 113.82 78.3447 114.512C76.8143 115.205 75.4297 116.225 74.2272 117.427C72.9883 118.666 71.968 120.124 71.13 121.654C70.5105 122.857 69.8546 124.023 69.1258 125.152C69.0165 125.334 68.9072 125.48 68.7979 125.662C67.8141 120.998 64.571 118.776 62.0203 118.302C60.417 118.01 58.8137 118.156 57.2833 118.302C55.935 118.411 54.6233 118.52 53.348 118.375C51.7082 118.193 50.1777 117.573 48.5015 116.917C47.3719 116.48 46.1696 116.006 44.9671 115.678C43.3638 115.277 41.3596 115.095 39.4284 115.86C39.3919 115.751 39.3918 115.678 39.3554 115.569C38.991 114.403 38.4444 113.492 37.8979 112.617C37.7157 112.326 37.5699 112.071 37.3878 111.779C36.5861 110.358 36.1852 109.046 36.2581 107.735C36.3674 105.694 37.4242 104.237 38.4809 102.779L38.6631 102.56C39.3919 101.54 41.0681 98.8801 40.5215 96.22L39.4648 96.4387C39.9385 98.6979 38.4445 101.03 37.7886 101.941L37.6064 102.16C36.5133 103.653 35.3108 105.33 35.2014 107.698C35.1286 109.229 35.5294 110.759 36.4768 112.362C36.659 112.654 36.8411 112.945 36.9869 113.237C37.497 114.075 38.0072 114.877 38.3352 115.933C38.3716 116.079 38.408 116.225 38.4444 116.371C37.6064 116.844 36.7684 117.537 36.0396 118.52L35.9667 118.63L35.9302 118.776C35.748 120.051 36.404 121.035 37.1328 121.326C37.7887 121.581 38.481 121.363 38.9182 120.743C39.5741 119.796 39.7563 118.338 39.6105 116.99C41.0681 116.371 42.7807 116.298 44.6755 116.771C45.8051 117.063 46.9712 117.537 48.0644 117.974C49.7041 118.63 51.4167 119.286 53.1658 119.504C54.5505 119.686 55.9715 119.541 57.3198 119.431C58.8502 119.286 60.3076 119.176 61.7652 119.431C64.0972 119.869 67.0488 121.982 67.7775 126.537C67.0852 127.958 62.7127 137.869 70.6198 147.671C68.9072 149.967 65.9921 151.315 62.6034 151.461C60.1984 151.57 57.7569 151.097 55.4249 150.659C54.6597 150.514 53.858 150.368 53.0564 150.222C48.538 149.457 43.9102 149.348 39.3554 149.821C37.0233 150.076 34.6549 150.514 32.3593 150.914C29.262 151.461 26.0554 152.044 22.8853 152.19C18.4397 152.408 12.2087 151.716 7.76322 147.307C3.68209 143.299 1.53224 136.375 1.78732 128.359C2.55253 105.73 15.1967 80.7701 35.6023 61.6033C38.0801 65.5023 41.8698 68.5267 46.206 70.1664C50.7972 71.879 55.9715 71.8426 60.5992 70.1664C63.2592 69.219 65.7005 67.7615 67.7775 65.8302C67.8868 65.7209 67.9597 65.6116 67.9597 65.5023C71.7493 69.1826 75.6848 72.9357 80.4218 75.3407C82.8267 76.5796 85.4139 77.3813 88.1104 77.527C91.0255 77.7092 94.1591 77.2719 96.9649 78.4015C99.297 79.3489 101.082 81.2802 101.629 83.7216C100.718 85.1062 100.208 86.746 100.244 88.4586C100.281 89.1509 101.374 89.1509 101.337 88.4586C101.301 87.0739 101.665 85.7257 102.358 84.5597C102.54 84.5232 102.686 84.3775 102.758 84.1953C103.05 83.0657 104.18 82.6284 105.236 82.8106C106.657 83.0292 107.787 84.086 109.172 84.4868C112.123 85.3613 114.419 82.8106 115.949 80.6243C119.557 75.3771 121.889 69.1097 126.699 64.7371C129.067 62.6236 132.055 60.9839 135.298 61.3483C135.735 61.3847 135.918 60.8746 135.772 60.5102C134.788 58.4332 135.517 55.7367 137.011 54.097C137.849 53.1496 138.942 52.4937 140.108 52.02C140.691 51.7649 141.274 51.5827 141.857 51.4005C142.258 51.2912 142.695 51.1819 143.096 51.0361C147.141 54.3156 151.513 57.2307 156.105 59.7085C156.105 59.7814 156.141 59.8543 156.141 59.8907C153.882 63.0609 154.538 67.2149 153.809 70.8587C153.627 71.8061 153.299 72.7535 152.825 73.5916C152.279 74.5755 151.586 75.45 151.003 76.4339C149.764 78.438 149.509 80.6243 149.291 82.9199C149.072 85.1427 148.635 87.2925 147.833 89.406C146.995 91.5194 145.865 93.5236 144.663 95.4184C142.331 99.1351 139.817 102.779 137.157 106.314C134.205 110.249 130.889 113.966 126.881 116.808C126.298 117.209 126.844 118.156 127.427 117.755C131.982 114.512 135.59 110.285 138.869 105.803C140.509 103.544 142.112 101.212 143.679 98.9165C145.282 96.548 146.849 94.143 148.052 91.5559C149.291 88.9687 150.019 86.2723 150.311 83.43C150.457 81.9725 150.566 80.515 150.967 79.0939C151.368 77.7092 152.206 76.5432 153.007 75.3771C153.736 74.284 154.319 73.1544 154.647 71.9155C154.975 70.713 155.121 69.4741 155.194 68.2352C155.376 65.8666 155.376 63.2795 156.578 61.1661C156.724 60.8745 156.979 60.6195 157.088 60.328C159.748 60.4738 162.372 60.3644 164.996 60.0729C167.619 59.7814 170.206 59.3441 172.83 59.1255C173.122 59.0891 173.377 59.0891 173.668 59.0891C173.777 59.3077 173.923 59.5263 174.069 59.7449C174.36 60.1458 174.798 60.4738 175.308 60.328C175.781 60.1822 176.037 59.6721 176.146 59.1984C176.146 59.1255 176.182 59.089 176.182 59.0162H176.219C176.292 59.1619 176.401 59.3077 176.51 59.4535C177.057 60.1458 178.041 60.1822 178.587 59.4535C178.733 59.2713 178.806 59.0526 178.879 58.834C179.389 58.7611 179.899 58.6518 180.409 58.5061C181.429 58.2146 182.523 57.7408 183.142 56.8299C183.762 55.9553 183.725 54.8622 183.215 53.9512C183.069 53.6597 182.887 53.4411 182.668 53.2225C182.705 52.5301 182.741 51.8378 182.741 51.1454C182.778 51.1819 182.814 51.2548 182.851 51.2912C183.616 52.2022 184.417 53.4046 185.584 53.8419C186.677 54.2427 187.697 53.5504 187.806 52.3844C187.879 51.7285 187.733 51.1819 187.624 50.6718ZM120.249 113.966C118.5 118.193 116.787 122.419 115.038 126.646C115.111 124.46 115.111 122.237 115.111 120.051C115.111 117.755 115.075 115.46 115.038 113.164C116.751 113.456 118.5 113.711 120.249 113.966ZM37.9343 120.051C37.7157 120.379 37.4971 120.27 37.4242 120.27C37.0963 120.124 36.8048 119.687 36.8777 119.031C37.3514 118.411 37.8979 117.937 38.4809 117.537C38.5174 118.484 38.3716 119.431 37.9343 120.051ZM79.11 146.87C78.1626 146.797 77.2152 146.687 76.2678 146.651C76.5229 146.141 76.7415 145.631 76.9601 145.121C78.0169 144.137 78.9278 142.971 79.5108 141.659C79.3651 143.408 79.2193 145.121 79.11 146.87ZM103.487 154.704C102.248 153.975 100.937 153.283 99.625 152.627C101.155 152.736 102.686 152.809 104.216 152.919C103.961 153.502 103.742 154.121 103.487 154.704ZM85.8876 108.026C87.6002 108.281 89.3128 108.536 90.989 108.828C90.9526 108.828 90.8797 108.828 90.8433 108.828C89.1671 108.864 87.4909 108.901 85.8511 108.974C85.8511 108.646 85.8876 108.318 85.8876 108.026ZM84.5393 110.358C84.5393 110.285 84.5393 110.212 84.5393 110.14C92.2278 109.775 99.9528 109.884 107.678 110.395C109.755 110.54 111.832 110.686 113.909 110.868C114.127 122.055 114.31 133.387 112.196 144.428C111.65 147.38 110.884 150.295 110.119 153.174C108.734 152.408 107.168 152.117 105.637 151.935C103.67 151.752 101.665 151.716 99.6978 151.57C95.398 151.279 91.0984 150.805 86.835 150.149C84.5758 149.785 82.3166 149.384 80.0939 148.947C80.3125 145.777 80.6039 142.57 80.8954 139.4C82.4623 139.728 84.0293 139.91 85.5962 139.801C86.6893 139.728 89.3128 139.436 88.7297 137.687C88.5475 137.104 88.0738 136.667 87.6366 136.266C87.0171 135.719 86.3613 135.282 85.6689 134.845C85.4503 134.699 85.2318 134.59 85.0496 134.481C85.7419 134.736 86.3977 134.991 87.09 135.282C88.256 135.756 89.4585 136.521 90.7703 136.558C91.8635 136.594 92.9568 135.975 93.2483 134.881C93.5398 133.715 92.8474 132.695 92.0822 131.893C92.5923 131.784 93.066 131.602 93.5032 131.201C95.5802 129.306 92.6651 127.011 91.2804 125.808C89.4949 124.351 87.5274 123.112 85.414 122.164C84.5394 121.763 83.6284 121.436 82.7538 121.144C83.4462 120.379 84.503 120.051 85.5962 120.051C87.5274 120.051 89.3128 121.035 91.1712 121.508C92.6652 121.909 94.7423 122.055 95.6168 120.525C96.5278 118.958 95.398 117.099 94.0133 116.298C93.1753 115.824 92.2278 115.532 91.2804 115.277C90.2966 114.986 89.2764 114.767 88.2561 114.585C86.8714 114.33 85.4868 114.111 84.0657 113.966C84.175 112.763 84.3571 111.561 84.5393 110.358ZM87.6366 138.197C87.6366 138.234 87.6366 138.234 87.6366 138.197V138.197ZM87.6731 138.124C87.6731 138.088 87.6731 138.088 87.6731 138.124V138.124ZM67.9597 128.869C68.1419 128.614 68.3243 128.322 68.47 128.067C69.2717 126.828 70.0733 125.553 70.8385 124.278C71.5309 123.075 72.1137 121.8 72.8789 120.634C73.7899 119.249 74.9196 117.974 76.2678 116.954C77.4339 116.079 78.7821 115.205 80.2396 115.022C81.8429 114.804 83.4826 115.022 85.0859 115.241C86.9442 115.496 88.7662 115.788 90.5517 116.298C92.0821 116.699 94.4143 117.209 94.7058 119.067C94.9973 121.035 92.5194 120.816 91.3169 120.488C89.495 120.014 87.7459 119.103 85.8511 118.994C84.3936 118.921 82.7904 119.286 81.7701 120.415C81.6608 120.561 81.5513 120.707 81.442 120.853C80.2031 120.525 78.9277 120.27 77.616 120.16C76.9236 120.087 76.9236 121.18 77.616 121.253C81.77 121.691 85.7783 123.257 89.1671 125.699C90.0052 126.318 90.8068 126.974 91.5356 127.667C92.1186 128.213 93.3939 129.233 92.8109 130.144C92.3737 130.837 91.572 130.91 90.8068 130.8C89.2399 129.416 87.4545 128.213 85.5962 127.266C83.0819 125.99 80.3853 125.152 77.616 124.751C77.3244 124.715 77.033 124.824 76.9601 125.116C76.8873 125.371 77.033 125.735 77.3245 125.772C81.8429 126.391 86.1791 128.25 89.6772 131.201C90.4424 131.857 91.4992 132.622 91.9364 133.606C92.1551 134.08 92.1551 134.699 91.7542 135.064C91.3899 135.392 90.8432 135.428 90.3695 135.355C89.7865 135.282 89.2399 134.991 88.7297 134.772C88.2196 134.517 87.6731 134.298 87.1265 134.08C85.9604 133.606 84.7945 133.169 83.592 132.768C81.6972 132.148 79.8023 131.638 77.8346 131.201C77.7982 131.201 77.7618 131.165 77.7254 131.165C77.1059 130.982 76.4864 130.764 75.8305 130.764C75.7941 130.764 75.7212 130.764 75.6848 130.764C75.6119 130.764 75.539 130.727 75.4296 130.727C74.7373 130.618 74.4459 131.675 75.1382 131.784C75.9034 131.93 76.705 132.076 77.4702 132.221C78.0533 132.404 78.6363 132.622 79.1829 132.841C80.8227 133.497 82.426 134.226 83.9564 135.1C85.1589 135.756 86.4706 136.485 87.3451 137.541C87.3816 137.614 87.3088 137.505 87.4181 137.614C87.4545 137.651 87.4909 137.687 87.4909 137.724C87.5273 137.76 87.5274 137.796 87.5638 137.833C87.5638 137.833 87.5638 137.833 87.6003 137.906C87.6003 137.942 87.6001 137.979 87.6366 138.015V138.052C87.6001 138.088 87.6002 138.124 87.5638 138.124C87.5638 138.124 87.5638 138.124 87.5273 138.124C87.4545 138.161 87.418 138.197 87.3451 138.234C87.3451 138.234 87.1993 138.307 87.09 138.307C86.8349 138.38 86.5435 138.452 86.252 138.489C82.681 139.035 79.0371 137.687 75.6848 136.703C74.9924 136.521 74.701 137.578 75.3933 137.76C76.5958 138.088 77.7983 138.489 79.0372 138.817C79.0372 139.035 79.0007 139.254 78.9643 139.473C78.6727 141.04 77.7982 142.424 76.7779 143.554C75.3204 145.121 73.5348 146.177 71.6036 146.906C65.4819 139.655 66.7937 132.331 67.9597 128.869ZM35.3836 61.3118C35.4201 61.3118 35.4201 61.3118 35.4566 61.3118C35.493 61.3847 35.5659 61.4576 35.6023 61.5304L35.3836 61.3118ZM54.186 70.2757C49.6312 70.4579 45.1128 69.0004 41.469 66.2675C39.4284 64.737 37.6793 62.8422 36.3675 60.6559C36.2947 60.5102 36.1489 60.4373 36.0032 60.4009C38.3717 55.5181 40.5579 50.5624 42.6714 45.5339C43.6188 45.4974 44.5297 45.2788 45.3678 44.8051C45.6228 44.6594 45.7322 44.3314 45.5864 44.0763C45.4407 43.8213 45.1127 43.712 44.8577 43.8577C42.7807 45.0237 39.8657 44.4043 38.4081 42.5459C36.987 40.6511 37.1691 37.6632 38.8453 35.987C40.5215 34.3108 43.5094 34.1286 45.4043 35.5497C45.6593 35.7319 45.9873 35.6955 46.1695 35.4404C46.3517 35.1853 46.3153 34.8574 46.0603 34.6752C45.9145 34.5659 45.7687 34.493 45.6594 34.3837L46.5704 34.4201C50.36 32.088 49.7405 28.3713 50.7243 25.602C52.1454 21.6302 54.2589 21.7031 56.8096 21.5209C60.5993 22.6869 62.9677 26.0393 65.2998 28.9908C68.0327 32.416 70.6926 35.8776 73.4255 39.3393C74.6644 40.9062 75.9034 42.473 77.1423 44.0399C74.5187 44.7322 71.8587 45.4246 69.2351 46.1169C68.2148 46.372 67.1945 46.6271 66.1743 46.8821C65.9556 46.955 65.7734 47.1737 65.7734 47.3923C65.9556 51.8378 66.1378 56.2833 66.3565 60.7288C66.4293 62.1499 66.5023 63.571 66.6116 65.0285C66.6116 65.1014 66.6481 65.1743 66.6481 65.2107C63.2228 68.2716 58.7773 70.0571 54.186 70.2757ZM175.016 59.0162C174.98 58.9797 174.943 58.9433 174.943 58.9069C174.98 58.9069 175.016 58.9069 175.053 58.9069C175.053 58.9433 175.053 58.9797 175.016 59.0162ZM186.567 52.603C185.875 53.3318 184.527 51.437 184.162 51.0361C182.45 49.032 180.81 46.9186 179.316 44.7322C179.134 44.4407 178.915 44.1492 178.733 43.8941C178.551 43.6026 178.405 43.5298 178.077 43.4205C177.458 43.1654 176.838 42.9467 176.219 42.7646C175.053 42.4366 173.85 42.2544 172.684 42.4366C170.352 42.8374 168.968 44.6958 168.676 46.955C168.494 48.5219 168.348 50.6717 169.805 51.7284C170.753 52.4208 172.028 52.3843 173.121 52.4208C174.506 52.4937 175.891 52.5665 177.239 52.6394C177.603 52.6758 178.004 52.6759 178.405 52.6759C178.952 52.7123 179.535 52.8216 180.081 52.9309C181.138 53.186 182.377 54.097 182.195 55.3359C182.049 56.5019 180.591 57.0121 179.608 57.2307C178.405 57.4858 177.166 57.5951 175.927 57.668C174.543 57.7773 173.122 57.8137 171.737 58.0323C171.7 58.0323 171.7 58.0323 171.664 58.0688C170.571 58.1781 169.441 58.2874 168.348 58.4696C165.688 58.834 163.028 59.1984 160.331 59.2348C159.238 59.2713 158.145 59.1984 157.052 59.1619C156.979 58.9797 156.87 58.834 156.615 58.7247C155.303 58.0324 153.991 57.2672 152.716 56.5019C150.165 54.9351 147.651 53.2225 145.282 51.4005C144.991 51.1819 144.736 50.9633 144.481 50.7446C146.958 47.4287 150.092 44.6229 153.481 42.2544C155.631 40.7604 157.854 39.4122 160.149 38.1004C161.279 37.4445 162.445 36.8251 163.575 36.2056C164.558 35.6955 165.615 35.2946 166.745 35.2582C167.874 35.2218 168.931 35.4768 170.024 35.7684C171.044 36.0599 172.028 36.3149 173.049 36.57C175.016 37.0801 177.02 37.6267 178.842 38.5741C180.664 39.5215 182.231 40.8697 183.361 42.6188C184.745 44.7322 185.583 47.1007 186.203 49.5057C186.349 50.0887 186.494 50.6718 186.64 51.2548C186.713 51.6556 186.895 52.3115 186.567 52.603ZM177.275 46.4813C176.729 45.8254 175.854 45.4246 175.053 45.0966C173.85 44.5865 172.611 44.2221 171.299 44.0763C173.121 42.7645 175.818 43.712 177.786 44.4772C178.988 46.2627 180.263 47.9753 181.612 49.6515C181.612 50.526 181.612 51.4005 181.575 52.275C180.956 51.9835 180.263 51.8013 179.571 51.692C179.025 51.6191 178.514 51.5463 177.968 51.5098C177.895 50.6353 177.895 49.7972 177.895 48.9227C177.968 48.0482 177.895 47.1737 177.275 46.4813ZM175.453 48.5219C174.215 48.0117 173.486 46.8457 173.231 45.5704C173.85 45.7525 174.47 45.9711 175.053 46.2627C175.818 46.627 176.656 47.0279 176.802 47.9389C176.948 48.8498 176.765 49.8701 176.838 50.7811C176.838 50.9997 176.875 51.2548 176.875 51.4734C176.802 51.4734 176.692 51.4734 176.62 51.4734C176.547 51.4734 176.51 51.4734 176.437 51.5098C176.219 51.5098 176 51.4734 175.745 51.4734C175.709 50.6717 175.672 49.8337 175.709 49.032C175.745 48.8134 175.636 48.5947 175.453 48.5219ZM172.466 48.6676C171.227 48.1939 170.425 47.0279 170.097 45.789C170.17 45.5703 170.279 45.3153 170.425 45.1331C171.008 45.1695 171.555 45.2424 172.138 45.3517C172.283 46.9914 173.194 48.6312 174.652 49.3964C174.652 50.0887 174.652 50.7811 174.688 51.4734C174.178 51.437 173.668 51.437 173.158 51.4005C173.049 51.4005 172.939 51.4005 172.794 51.4005C172.757 50.7082 172.794 49.9794 172.866 49.2871C172.866 48.9227 172.648 48.7405 172.466 48.6676ZM171.7 51.2548C171.081 51.1819 170.498 50.9997 170.134 50.526C169.587 49.7972 169.623 48.7041 169.696 47.8295C169.696 47.7567 169.696 47.7202 169.696 47.6473C170.17 48.449 170.862 49.1049 171.737 49.5421C171.7 50.0887 171.7 50.6718 171.7 51.2548ZM63.8787 102.196C65.2634 100.301 65.7735 97.8962 65.3727 95.6006C65.1905 94.6167 64.8625 93.6693 64.3523 92.7948C63.8422 91.8838 63.1135 91.1915 62.4212 90.3899C61.7653 89.6246 61.1457 88.7865 61.0364 87.7298C60.8906 86.6002 61.4373 85.6528 62.0568 84.7783C62.6398 84.0131 63.1863 83.2843 63.4414 82.3369C63.66 81.5352 63.66 80.6607 63.4778 79.8227C63.1135 78.1465 62.0203 76.5432 60.3806 75.8873C59.7247 75.6322 60.0161 74.5755 60.672 74.8305C62.7126 75.6322 64.1337 77.527 64.5345 79.6405C64.7167 80.5514 64.7167 81.4988 64.4981 82.4098C64.2794 83.4301 63.7329 84.2682 63.1135 85.1063C62.494 85.9444 61.8016 86.8553 62.1295 87.9484C62.4211 89.0052 63.3686 89.8068 64.0609 90.6085C66.976 93.9244 67.3768 99.0987 64.7532 102.706C64.3888 103.289 63.4414 102.743 63.8787 102.196ZM63.3321 53.6233C63.4779 53.8783 63.405 54.2427 63.1499 54.3885C61.5831 55.2266 59.3968 54.5707 58.6316 52.9674C58.5223 52.7123 58.5587 52.3844 58.8138 52.2022C59.0688 52.0564 59.4331 52.1293 59.5788 52.3844C59.6153 52.4572 59.6519 52.5665 59.7247 52.6394C59.7612 52.6758 59.7611 52.7123 59.7975 52.7487C59.7975 52.7487 59.7975 52.7852 59.834 52.7852C59.9433 52.9309 60.0526 53.0402 60.1984 53.1496C60.2348 53.186 60.2712 53.186 60.3076 53.2225C60.3805 53.2589 60.4534 53.3317 60.5263 53.3682C60.5992 53.4046 60.6721 53.4411 60.7449 53.4775H60.7814C60.8179 53.4775 60.8542 53.5139 60.8907 53.5139C60.9635 53.5504 61.0729 53.5504 61.1458 53.5868C61.1822 53.5868 61.2186 53.5868 61.2551 53.6233H61.328C61.4738 53.6233 61.6194 53.6597 61.8016 53.6233C61.8381 53.6233 61.8746 53.6233 61.9111 53.6233C61.9111 53.6233 61.9109 53.6233 61.9474 53.6233C61.9474 53.6233 61.9474 53.6233 61.9838 53.6233C62.0567 53.6233 62.1296 53.5868 62.2025 53.5868C62.2754 53.5504 62.3848 53.5504 62.4576 53.5139C62.4941 53.4775 62.5305 53.4775 62.6034 53.4411C62.8584 53.2953 63.1864 53.3682 63.3321 53.6233ZM58.2307 98.1148C58.4129 99.0987 59.178 99.9003 60.1619 99.9368C61.2915 100.01 62.3118 99.0623 62.6034 98.042C62.8949 96.9853 62.3846 95.8556 61.4008 95.3819C60.3805 94.9082 59.0324 94.9811 58.2307 95.8557C58.0485 96.0743 58.0121 96.4387 58.2307 96.6209C58.2672 96.6573 58.3035 96.6937 58.34 96.6937C58.1578 97.1674 58.1214 97.6411 58.2307 98.1148ZM59.2509 97.4954C59.2509 97.4954 59.2509 97.4589 59.2509 97.4225C59.2509 97.386 59.2509 97.3496 59.2509 97.3132C59.2509 97.2768 59.2874 97.2403 59.2874 97.1674C59.2874 97.131 59.3239 97.0945 59.3239 97.0581V97.0217C59.3603 96.9852 59.3602 96.9488 59.3966 96.9123L59.4331 96.8759C59.4331 96.8395 59.4696 96.8395 59.4696 96.8395C59.506 96.803 59.5424 96.7666 59.5788 96.7301L59.6153 96.6937C59.6518 96.6573 59.7246 96.6573 59.761 96.6209C59.9068 96.548 60.0162 96.3658 60.0162 96.1836C60.0526 96.1836 60.089 96.1836 60.1254 96.1836C60.1619 96.1836 60.1984 96.1836 60.2348 96.1836H60.2713C60.3806 96.22 60.4534 96.22 60.5628 96.2565C60.5992 96.2565 60.6356 96.2929 60.672 96.2929H60.7085C60.7814 96.3293 60.8543 96.3658 60.9636 96.4022C61.0001 96.4387 61.0364 96.4387 61.0729 96.4751C61.1457 96.548 61.2186 96.5844 61.2551 96.6573C61.2551 96.6573 61.2551 96.6573 61.2915 96.6937C61.328 96.7302 61.328 96.7666 61.3645 96.803C61.4009 96.8395 61.4008 96.8759 61.4372 96.9123C61.4372 96.9123 61.4373 96.9488 61.4737 96.9488C61.4737 96.9853 61.5102 97.0581 61.5102 97.0945C61.5102 97.0945 61.5102 97.1674 61.5467 97.2039C61.5467 97.2403 61.5467 97.2767 61.5467 97.2767C61.5467 97.3496 61.5467 97.386 61.5467 97.4589C61.5467 97.4589 61.5467 97.459 61.5467 97.4954C61.5467 97.4954 61.5467 97.4954 61.5467 97.5318C61.5467 97.5683 61.5466 97.6047 61.5102 97.6411C61.5102 97.6776 61.4737 97.7504 61.4737 97.7869C61.4737 97.8233 61.4737 97.8233 61.4372 97.8598C61.4008 97.9327 61.3644 98.042 61.2915 98.1148C61.2551 98.1513 61.2186 98.1877 61.2186 98.2242C61.2186 98.2606 61.1822 98.2606 61.1458 98.297C61.0729 98.3699 61 98.4428 60.9271 98.5156L60.8907 98.5521C60.8542 98.5885 60.7814 98.625 60.7449 98.6614C60.7085 98.6978 60.6721 98.6978 60.6357 98.7343C60.5993 98.7343 60.5628 98.7707 60.5628 98.7707C60.4899 98.8072 60.3805 98.8072 60.3076 98.8436C60.3076 98.8436 60.3078 98.8436 60.2713 98.8436C60.2349 98.8436 60.1619 98.8436 60.1254 98.8436C60.089 98.8436 60.0891 98.8436 60.0526 98.8436C60.0162 98.8436 59.9798 98.8436 59.9069 98.8072C59.8705 98.8072 59.8339 98.7707 59.7975 98.7707H59.761C59.7246 98.7343 59.6882 98.7343 59.6518 98.6978C59.6518 98.6978 59.6518 98.6978 59.6153 98.6978C59.5789 98.6614 59.4696 98.5521 59.4696 98.5521C59.4332 98.5156 59.3966 98.4792 59.3966 98.4428C59.3602 98.3699 59.3238 98.297 59.2874 98.2242C59.2874 98.1877 59.2509 98.1513 59.2509 98.0784C59.2509 98.042 59.2146 97.8233 59.1782 97.7869V97.7504C59.1782 97.714 59.1782 97.6776 59.1782 97.6411C59.251 97.6047 59.2509 97.5318 59.2509 97.4954Z" fill="#3F4254"/>
<path d="M183.36 48.9226L183.105 49.0684C182.595 50.1615 182.121 51.2911 181.611 52.3843C182.668 53.0402 183.433 54.2426 183.287 55.518C183.069 56.9755 181.684 57.8136 180.372 58.178C179.862 58.3238 179.352 58.4331 178.842 58.506C177.676 61.0567 176.546 63.6074 175.38 66.1581C175.052 66.9233 174.688 67.725 174.834 68.5266C174.979 69.5469 175.817 70.2756 176.546 70.968C179.789 74.1017 182.34 77.9277 183.943 82.1546C188.753 75.1584 193.527 68.1986 198.337 61.2024C194.401 55.6637 189.591 51.7648 183.36 48.9226Z" fill="#9ED5F0"/>
<path d="M181.538 60.2186C181.939 63.2795 181.575 66.3768 180.482 69.2919C180.3 69.802 181.028 70.2028 181.393 69.8384C184.599 66.4497 189.118 64.4091 193.782 64.1905C194.474 64.154 194.474 63.0609 193.782 63.0973C188.826 63.3159 184.053 65.4658 180.627 69.0732C180.919 69.2554 181.247 69.4376 181.538 69.6198C182.668 66.6319 183.032 63.3888 182.632 60.2551C182.522 59.5263 181.429 59.5263 181.538 60.2186Z" fill="#3F4254"/>
</g>
<defs>
<clipPath id="clip0_332_48">
<rect width="200" height="156" fill="white" transform="translate(0.742188 0.375)"/>
</clipPath>
</defs>
</svg>
